<?xml version="1.0" standalone="no"?>
<!DOCTYPE svg PUBLIC "-//W3C//DTD SVG 20010904//EN"
 "http://www.w3.org/TR/2001/REC-SVG-20010904/DTD/svg10.dtd">
<svg version="1.0" xmlns="http://www.w3.org/2000/svg"
 width="1024.000000pt" height="1024.000000pt" viewBox="0 0 1024.000000 1024.000000"
 preserveAspectRatio="xMidYMid meet">
<metadata>
Created by potrace 1.14, written by Peter Selinger 2001-2017
</metadata>
<g transform="translate(0.000000,1024.000000) scale(0.100000,-0.100000)"
fill="#000000" stroke="none">
<path d="M0 5120 l0 -5120 5120 0 5120 0 0 5120 0 5120 -5120 0 -5120 0 0
-5120z m5954 4042 c2 -4 -4 -13 -14 -20 -14 -9 -19 -8 -24 3 -7 18 27 34 38
17z m3022 -38 c21 -15 58 -42 81 -61 39 -31 42 -36 31 -56 -7 -12 -11 -26 -9
-32 4 -12 13 -83 13 -105 0 -29 20 -80 31 -80 8 0 7 -4 -1 -12 -15 -15 -16
-32 -2 -23 6 3 10 1 10 -4 0 -6 -4 -11 -9 -11 -12 0 2 -381 15 -402 3 -4 2 -8
-3 -8 -4 0 -9 -117 -10 -260 -1 -156 2 -260 8 -260 5 0 9 -12 9 -26 0 -14 5
-34 10 -44 8 -15 5 -25 -16 -47 -24 -26 -25 -32 -19 -88 4 -33 7 -64 7 -70 0
-5 -4 -58 -8 -117 -5 -72 -4 -108 3 -108 13 0 11 -49 -2 -70 -5 -8 -10 -38
-12 -66 -2 -41 2 -55 17 -69 23 -21 26 -45 6 -45 -21 0 -31 -21 -15 -31 9 -6
10 -9 2 -9 -8 0 -12 -35 -13 -117 0 -65 -1 -150 -1 -190 l-1 -72 -61 -20 c-69
-24 -153 -28 -160 -8 -4 9 -7 9 -14 0 -5 -7 -29 -12 -55 -11 -25 0 -51 -3 -57
-6 -6 -4 -11 -3 -11 1 0 5 -15 7 -33 5 -18 -2 -79 6 -137 18 -58 12 -122 24
-143 27 -20 3 -40 9 -43 14 -3 5 -18 9 -34 9 -15 0 -39 9 -52 20 -12 11 -34
28 -47 38 -19 15 -23 27 -23 66 1 28 -3 44 -8 41 -6 -3 -10 -1 -10 4 0 6 5 11
10 11 17 0 11 39 -10 60 -25 25 -26 38 -2 36 14 -1 17 6 15 38 -2 21 -7 44
-13 51 -8 9 -8 15 -1 20 6 3 8 24 6 48 -9 76 -16 171 -15 216 0 24 -6 54 -15
67 -18 28 -19 38 -2 28 10 -6 10 -4 0 7 -7 7 -13 28 -13 45 0 44 -14 50 -55
24 -39 -24 -40 -30 -24 -114 10 -58 15 -112 18 -193 0 -23 7 -48 14 -55 13
-14 14 -52 2 -80 -7 -17 -4 -66 10 -140 6 -32 4 -38 -12 -39 -10 -1 -81 -2
-158 -4 -77 -2 -144 -4 -150 -5 -38 -9 -89 43 -185 185 -19 28 -118 134 -222
236 -197 196 -198 198 -179 267 9 29 8 32 -12 33 -12 1 -25 1 -29 0 -5 0 -8 4
-8 9 0 6 7 10 16 8 25 -4 29 22 5 29 -12 3 -21 13 -21 24 0 20 15 26 25 9 10
-15 82 -12 88 4 4 11 16 12 52 5 25 -5 49 -11 53 -13 4 -2 32 -7 62 -11 30 -4
60 -10 65 -15 6 -4 26 -10 45 -13 19 -3 64 -11 100 -17 130 -22 134 -22 157 0
24 22 43 26 43 9 0 -5 5 -7 12 -3 8 5 9 2 4 -11 -5 -15 -4 -16 9 -5 14 11 13
14 -5 27 -19 14 -19 40 1 28 5 -4 9 -2 9 4 0 5 42 40 93 76 50 36 121 87 156
112 54 39 66 44 82 35 26 -16 39 -15 39 4 0 14 2 14 15 0 8 -8 15 -19 15 -24
0 -5 28 -15 63 -22 88 -17 130 -32 144 -51 8 -10 24 -16 43 -14 37 3 46 10 33
27 -6 7 -14 27 -17 45 -7 32 -26 46 -50 37 -7 -3 -16 1 -19 9 -3 8 -18 14 -39
13 -18 -1 -39 5 -46 12 -8 7 -18 10 -23 7 -5 -4 -19 1 -31 9 -12 9 -30 16 -39
16 -9 0 -23 10 -31 23 -14 23 -13 57 2 57 5 0 14 16 21 35 7 19 19 35 26 35 7
0 12 3 11 8 -4 17 16 79 34 102 10 14 27 36 37 49 17 24 18 24 57 6 21 -9 50
-22 64 -27 14 -6 33 -14 42 -19 10 -5 28 -9 42 -9 13 0 34 -8 47 -18 13 -11
41 -22 62 -25 32 -5 37 -3 37 13 0 10 5 22 10 25 15 10 12 28 -4 22 -8 -3 -17
1 -20 9 -3 8 -11 14 -17 14 -7 0 -17 8 -24 17 -12 16 -22 20 -75 25 -13 2 -32
11 -42 20 -10 10 -35 20 -56 24 -63 10 -68 39 -25 144 3 8 8 24 10 35 10 53
64 195 74 195 4 0 10 12 14 28 3 15 12 41 20 57 7 17 20 53 30 80 10 28 28 60
41 73 13 13 24 28 24 34 0 6 3 8 7 5 3 -4 20 19 36 50 28 57 51 83 71 83 6 0
4 -5 -4 -10 -11 -7 -11 -10 -2 -10 7 0 17 10 22 23 5 12 9 18 9 14 1 -5 11 -1
23 7 30 21 39 20 84 -10z m-2616 7 c0 -16 -28 -20 -40 -5 -10 12 -8 14 14 14
14 0 26 -4 26 -9z m125 -1 c-3 -5 -15 -10 -26 -10 -11 0 -17 5 -14 10 3 6 15
10 26 10 11 0 17 -4 14 -10z m30 -20 c-11 -5 -15 -9 -10 -10 6 -1 19 -4 30 -7
11 -3 83 -7 160 -9 77 -1 158 -5 180 -7 22 -2 46 0 53 6 7 5 15 7 19 4 3 -4
12 -2 18 3 9 7 16 6 25 -5 17 -21 123 -21 140 0 9 11 9 15 1 15 -7 0 -9 5 -5
11 5 8 9 8 14 -1 5 -8 18 -10 36 -6 23 5 26 4 12 -4 -26 -16 -22 -29 10 -30
15 0 36 -1 47 -2 11 0 34 0 50 1 17 2 88 0 159 -3 107 -5 131 -9 142 -23 32
-42 52 -191 27 -200 -12 -5 -12 -7 -2 -14 18 -11 23 -129 6 -129 -9 0 -8 -3 1
-9 9 -5 11 -20 7 -47 -4 -21 -8 -82 -10 -136 -3 -88 -7 -102 -39 -165 -20 -37
-43 -78 -52 -90 -9 -13 -22 -30 -28 -39 -8 -10 -27 -16 -52 -17 -21 0 -45 -5
-53 -11 -11 -8 -15 -8 -18 2 -7 18 -36 15 -61 -8 -25 -24 -32 -25 -32 -5 0 11
-12 15 -45 15 -25 0 -45 -3 -45 -7 0 -5 -39 -8 -87 -9 -147 -1 -237 -7 -250
-17 -7 -5 -13 -6 -13 -1 0 5 -7 1 -14 -9 -9 -12 -16 -14 -21 -8 -3 6 -1 11 6
11 7 0 9 3 6 6 -4 4 -13 1 -21 -5 -8 -7 -29 -13 -46 -13 -17 -1 -33 -5 -36
-10 -6 -9 33 -77 44 -79 4 0 15 -2 24 -4 9 -2 49 3 90 11 40 8 102 14 139 14
37 0 70 5 77 12 7 7 12 9 12 5 0 -3 18 0 40 8 35 12 40 12 40 -1 0 -12 9 -14
48 -8 26 3 52 11 59 16 7 6 14 5 18 -2 3 -6 10 -8 16 -5 5 3 25 3 44 -1 25 -4
33 -10 26 -18 -5 -6 -12 -23 -14 -36 -6 -39 -14 -57 -75 -180 -44 -88 -61
-114 -75 -112 -9 2 -25 -1 -34 -6 -10 -6 -28 -6 -47 0 -53 16 -66 17 -66 7 0
-5 -11 -2 -25 7 -23 15 -25 15 -32 -2 -4 -11 -13 -24 -20 -29 -8 -6 -11 -18
-7 -28 7 -19 20 -22 28 -8 4 5 24 1 46 -10 21 -10 45 -19 53 -19 10 0 13 -8 9
-25 -4 -26 -16 -32 -27 -15 -3 5 -15 15 -27 21 -15 8 -19 8 -14 0 4 -6 2 -11
-3 -11 -6 0 -11 5 -11 10 0 6 -6 10 -14 10 -19 0 -67 40 -61 50 3 5 1 11 -5
15 -6 4 -5 11 3 19 7 9 14 10 18 4 4 -7 9 -7 13 0 3 6 -7 17 -23 25 -24 12
-32 12 -52 1 -19 -10 -20 -13 -6 -14 9 0 17 -7 17 -16 0 -11 -5 -14 -16 -10
-9 3 -25 6 -37 7 -20 0 -20 1 -5 11 14 11 14 13 -7 30 -13 10 -35 18 -49 18
-25 0 -86 35 -94 53 -2 4 -7 5 -12 2 -10 -6 -80 34 -80 46 0 5 -5 9 -11 9 -5
0 -7 -5 -3 -12 13 -20 -58 0 -84 25 -13 12 -27 21 -30 19 -4 -2 -8 1 -10 7 -2
6 3 11 12 11 9 0 16 4 16 9 0 4 -11 6 -23 4 -17 -3 -47 11 -101 48 l-77 52 30
20 c32 19 32 22 0 68 -12 17 -15 30 -8 40 14 22 11 37 -8 42 -15 3 -14 6 8 16
25 12 38 44 55 131 8 42 27 82 47 99 14 11 14 29 1 70 -3 9 -8 10 -17 3 -6 -5
-27 -13 -45 -17 -30 -6 -58 -36 -45 -48 3 -3 -2 -14 -12 -23 -11 -11 -15 -28
-13 -46 3 -15 1 -28 -4 -28 -4 0 -8 -13 -8 -30 0 -16 -4 -30 -9 -30 -5 0 -12
-13 -16 -29 -3 -16 -15 -37 -26 -47 -19 -17 -21 -17 -57 1 -20 11 -40 24 -43
28 -3 5 -9 8 -13 8 -3 -1 -6 2 -5 7 0 4 -10 10 -23 14 -22 6 -21 6 4 7 30 1
70 29 62 43 -3 5 -10 6 -15 3 -5 -4 -9 -2 -9 4 0 5 8 12 18 14 11 3 8 5 -8 6
-15 0 -31 6 -37 12 -14 14 -36 1 -29 -17 3 -8 2 -14 -3 -14 -4 0 -13 -11 -19
-25 -15 -32 -19 -31 -62 5 -19 16 -37 30 -40 30 -3 0 -11 4 -18 8 -10 7 -10
14 3 38 8 16 15 35 15 42 0 12 4 22 34 79 9 17 16 41 16 54 0 12 7 30 16 40
27 30 29 85 3 111 -20 21 -21 21 -15 3 6 -16 5 -18 -5 -7 -17 16 -32 15 -26
-2 3 -7 -8 -28 -24 -45 -16 -18 -29 -38 -29 -46 0 -8 -5 -27 -11 -42 -6 -15
-15 -37 -19 -48 -24 -63 -55 -115 -69 -115 -9 1 -34 8 -56 16 -22 9 -56 19
-75 24 -53 12 -180 60 -225 85 -22 13 -74 33 -115 46 -41 13 -81 32 -89 42
-13 18 -14 18 -32 -2 -10 -11 -19 -26 -19 -33 0 -9 3 -9 10 2 5 8 10 12 12 10
25 -39 28 -50 12 -50 -13 0 -14 -3 -4 -15 7 -8 16 -12 21 -9 5 3 9 1 9 -4 0
-5 7 -9 15 -9 8 0 15 4 15 8 0 4 -7 9 -15 13 -8 3 -15 10 -15 15 0 5 20 -2 45
-16 52 -29 56 -36 18 -28 -27 6 -27 6 -8 -9 11 -8 27 -21 35 -28 8 -7 18 -13
23 -13 5 0 14 -8 21 -17 7 -10 16 -14 20 -11 4 4 -8 20 -26 34 -18 15 -30 31
-25 35 4 4 15 0 25 -9 10 -10 24 -17 30 -17 6 0 15 -6 19 -12 4 -7 28 -24 53
-38 53 -28 105 -62 140 -90 14 -11 31 -20 38 -20 6 0 12 -4 12 -10 0 -15 -7
-13 -68 23 -31 18 -69 38 -84 46 -15 8 -36 22 -45 31 -10 9 -26 19 -36 23 -29
11 -16 -12 17 -31 16 -9 38 -25 48 -34 10 -10 23 -18 28 -18 6 0 16 -5 23 -10
25 -22 203 -140 236 -157 19 -9 61 -44 92 -76 52 -53 56 -60 42 -75 -48 -55
-62 -78 -57 -97 5 -18 4 -19 -6 -2 -13 20 -13 19 -103 -65 -22 -21 -44 -38
-49 -38 -6 0 -27 -18 -48 -40 -21 -22 -41 -40 -45 -40 -4 0 -20 9 -36 21 -16
11 -29 16 -29 10 0 -23 -20 -10 -26 17 -8 31 -31 57 -62 66 -12 4 -22 14 -22
22 0 21 -30 17 -38 -6 -7 -20 -9 -19 -36 9 -19 20 -27 36 -23 50 3 12 1 21 -4
21 -5 0 -9 7 -9 15 0 8 -9 23 -20 32 -11 10 -20 22 -20 28 -1 14 -46 64 -62
67 -7 2 -17 8 -21 13 -5 6 -7 1 -4 -10 2 -11 -2 -26 -10 -33 -15 -14 -16 -10
-13 44 1 21 -4 33 -15 38 -13 4 -16 2 -11 -9 3 -8 1 -15 -4 -15 -6 0 -10 9
-10 20 0 11 -4 20 -10 20 -5 0 -10 6 -10 14 0 14 -29 30 -38 21 -3 -3 1 -17 8
-33 8 -15 16 -31 19 -36 2 -5 -2 -5 -10 0 -8 5 -22 7 -31 6 -20 -4 -25 14 -6
20 7 3 6 7 -5 11 -10 4 -17 2 -17 -5 0 -6 -9 -3 -20 7 -11 10 -17 22 -14 26 3
5 -4 9 -15 9 -12 0 -21 5 -21 10 0 16 25 11 53 -10 l26 -20 6 20 c4 12 11 17
18 13 7 -3 3 3 -7 16 -15 16 -21 18 -28 9 -6 -11 -8 -10 -8 0 0 7 -8 12 -17
10 -13 -2 -19 5 -21 24 -2 20 -16 37 -47 58 -24 16 -46 30 -49 30 -3 0 -6 -17
-6 -37 l0 -37 -54 53 -55 54 -85 -6 c-46 -4 -92 -10 -102 -14 -12 -4 -15 -3
-10 5 4 7 3 12 -3 12 -5 0 -11 -4 -13 -9 -1 -5 -28 -11 -59 -14 -30 -2 -61 -7
-67 -11 -7 -4 -12 -2 -12 4 0 6 -12 4 -31 -6 -17 -8 -40 -14 -50 -11 -10 3
-20 0 -22 -6 -2 -6 -58 -10 -152 -10 -177 -1 -245 8 -245 29 0 8 -5 12 -10 9
-6 -4 -28 1 -50 11 -33 15 -37 20 -29 36 14 25 -12 65 -49 78 -15 6 -34 14
-43 19 -19 11 -39 -4 -39 -28 0 -11 -6 -9 -21 7 -11 12 -24 20 -28 17 -5 -2
-14 2 -20 9 -8 10 -9 16 -1 21 17 11 11 25 -11 25 -11 0 -17 -4 -14 -10 3 -5
1 -10 -4 -10 -6 0 -10 10 -8 23 2 19 -2 22 -30 21 -18 -1 -33 2 -33 8 0 5 -8
2 -17 -8 -17 -17 -18 -16 -21 14 -3 30 -29 49 -59 44 -6 -2 -14 7 -18 18 -3
11 -15 20 -25 20 -10 0 -21 7 -24 15 -3 9 -22 23 -41 31 -19 8 -35 19 -35 24
0 6 -12 16 -27 22 -16 7 -37 22 -48 34 -20 21 -25 24 -45 24 -5 0 -10 5 -10
11 0 6 -10 19 -22 29 -24 19 -22 28 8 34 11 3 41 9 68 15 26 7 57 9 68 5 13
-4 18 -2 14 4 -11 19 63 26 133 13 36 -7 118 -29 181 -50 64 -22 149 -49 190
-60 41 -12 84 -26 95 -32 11 -5 59 -16 107 -23 70 -10 95 -10 137 1 43 11 102
42 121 64 16 18 148 71 208 83 9 1 24 6 32 9 105 41 265 84 346 92 69 8 173
-13 215 -44 l26 -19 17 28 c15 27 38 32 64 16 14 -8 166 15 189 30 12 8 30 11
39 7 13 -5 15 -3 9 8 -8 12 -6 12 8 0 13 -10 45 -12 149 -6 73 3 160 6 193 6
35 0 63 5 67 12 6 9 8 9 8 0 0 -8 55 -11 198 -11 108 0 225 -3 260 -7 53 -6
62 -5 62 9 0 9 5 16 10 16 6 0 10 -6 10 -12 0 -10 3 -9 9 1 5 7 13 11 18 8 5
-3 15 -2 23 4 8 5 22 8 30 8 10 0 8 -3 -5 -9z m-510 -510 c3 -5 1 -10 -4 -10
-6 0 -11 5 -11 10 0 6 2 10 4 10 3 0 8 -4 11 -10z m-4 -39 c-8 -5 -10 -14 -6
-22 6 -11 5 -11 -5 -2 -14 12 -6 33 13 33 8 0 7 -3 -2 -9z m-2169 -53 c-6 -6
-16 -7 -22 -3 -9 6 -9 9 1 16 17 10 34 0 21 -13z m2588 -48 c0 -5 -6 -10 -14
-10 -8 0 -16 -5 -18 -12 -3 -7 -10 -8 -17 -3 -10 6 -8 11 10 21 29 16 39 17
39 4z m-470 -30 c0 -5 -2 -10 -4 -10 -3 0 -8 5 -11 10 -3 6 -1 10 4 10 6 0 11
-4 11 -10z m-152 -132 c26 -18 49 -35 52 -38 3 -3 23 -14 46 -24 22 -9 54 -28
70 -41 25 -21 26 -24 9 -24 -11 0 -56 25 -100 55 -44 31 -92 63 -107 72 -25
16 -37 32 -22 32 3 0 27 -15 52 -32z m2657 12 c-3 -5 1 -10 10 -10 9 0 13 -5
10 -10 -5 -8 -11 -7 -21 1 -12 10 -11 29 2 29 3 0 2 -4 -1 -10z m745 -15 c0
-24 -1 -24 -18 -7 -21 19 -19 32 4 32 8 0 14 -10 14 -25z m-597 -69 c-4 -6 -8
-5 -11 2 -2 7 -8 10 -13 6 -5 -3 -9 -1 -9 5 0 14 24 20 32 7 4 -5 4 -15 1 -20z
m42 14 c3 -5 -1 -10 -10 -10 -9 0 -13 5 -10 10 3 6 8 10 10 10 2 0 7 -4 10
-10z m-1195 -85 c0 -8 -4 -15 -10 -15 -5 0 -7 7 -4 15 4 8 8 15 10 15 2 0 4
-7 4 -15z m-2290 -10 c7 -9 8 -15 2 -15 -5 0 -12 7 -16 15 -3 8 -4 15 -2 15 2
0 9 -7 16 -15z m2120 -5 c0 -5 -5 -10 -11 -10 -5 0 -7 5 -4 10 3 6 8 10 11 10
2 0 4 -4 4 -10z m-2060 -35 c0 -8 -4 -15 -10 -15 -5 0 -7 7 -4 15 4 8 8 15 10
15 2 0 4 -7 4 -15z m820 -105 c0 -5 -5 -10 -11 -10 -5 0 -7 5 -4 10 3 6 8 10
11 10 2 0 4 -4 4 -10z m3136 -100 c-1 -17 -6 -30 -14 -30 -7 0 -10 5 -7 10 3
6 1 10 -4 10 -6 0 -3 9 6 20 10 11 18 20 19 20 1 0 1 -13 0 -30z m-676 -79 c0
-21 -16 -2 -24 29 -7 24 -6 24 8 6 9 -11 16 -27 16 -35z m680 -36 c-9 -11 -9
-15 -1 -15 7 0 9 -4 6 -10 -3 -5 -13 -10 -21 -10 -20 0 -17 38 4 43 9 3 19 5
21 6 2 0 -2 -6 -9 -14z m-4909 -143 c-7 -24 -21 9 -21 50 0 65 14 78 20 18 3
-30 4 -61 1 -68z m2957 73 c-3 -3 -9 2 -12 12 -6 14 -5 15 5 6 7 -7 10 -15 7
-18z m-118 2 c0 -8 -7 -14 -15 -14 -11 0 -12 4 -4 14 6 7 13 13 15 13 2 0 4
-6 4 -13z m110 -181 c0 -3 -4 -8 -10 -11 -5 -3 -10 -1 -10 4 0 6 5 11 10 11 6
0 10 -2 10 -4z m-2871 -178 c13 -38 0 -26 -17 15 -7 16 -8 26 -3 23 5 -3 14
-20 20 -38z m-1422 -49 c18 -12 39 -19 46 -16 26 10 204 -14 272 -37 39 -13
85 -27 102 -31 18 -3 35 -11 38 -16 4 -5 13 -9 20 -9 23 0 156 -85 200 -128
49 -47 72 -75 107 -129 36 -56 13 -45 -37 18 -45 56 -72 76 -72 54 0 -8 7 -17
16 -20 9 -3 27 -22 40 -42 13 -21 42 -63 63 -95 21 -31 38 -61 38 -67 0 -6 8
-8 18 -5 13 5 14 4 3 -4 -12 -9 -11 -18 7 -59 11 -26 23 -65 27 -85 4 -21 11
-35 16 -32 5 3 9 -7 8 -23 -1 -29 2 -49 20 -142 14 -69 14 -71 -4 -71 -8 0
-15 -7 -15 -16 0 -8 -5 -12 -10 -9 -6 4 -7 11 -4 17 4 5 -5 3 -19 -6 -19 -13
-26 -14 -29 -4 -4 11 -8 10 -21 0 -9 -8 -22 -12 -29 -10 -7 3 -28 -11 -47 -30
-27 -27 -31 -36 -20 -44 10 -7 8 -8 -7 -4 -23 7 -60 -26 -50 -42 9 -15 -3 -40
-20 -44 -13 -2 -13 -6 -2 -20 12 -17 16 -15 50 16 32 30 42 33 85 31 26 -1 61
-8 77 -14 25 -10 32 -9 52 10 16 15 22 29 18 44 -3 13 -1 26 5 29 7 5 11 -6
11 -31 0 -21 5 -56 10 -78 6 -22 12 -56 14 -75 3 -19 9 -74 15 -121 6 -47 8
-110 5 -140 -3 -30 -7 -99 -9 -154 -12 -322 -18 -413 -30 -487 -16 -98 -23
-106 -51 -63 -34 51 -144 95 -182 71 -7 -4 -20 -5 -28 -2 -9 3 -23 2 -32 -3
-11 -6 -21 -4 -30 5 -10 12 -10 14 2 14 9 0 13 6 10 14 -3 7 -17 13 -32 13
-15 0 -42 2 -59 5 -18 4 -33 2 -33 -3 0 -8 13 -13 31 -11 3 1 6 -5 6 -13 0 -8
-3 -13 -6 -13 -7 1 -31 -9 -135 -56 -43 -20 -82 -33 -87 -30 -5 3 -9 1 -9 -3
0 -5 -20 -17 -45 -28 -25 -11 -45 -23 -45 -28 0 -4 -25 -18 -55 -32 -30 -13
-55 -29 -55 -35 0 -6 5 -8 13 -4 8 6 8 3 -1 -9 -8 -9 -37 -23 -66 -31 -29 -9
-69 -27 -90 -41 -20 -14 -41 -25 -45 -25 -5 0 -22 -14 -39 -31 l-31 -31 -6 35
c-8 39 -7 43 1 155 5 66 3 79 -22 127 -27 54 -60 83 -136 119 -21 9 -38 23
-38 30 0 8 -7 19 -15 26 -18 15 -20 -1 -2 -19 10 -11 8 -12 -8 -3 -11 6 -28
34 -38 63 -17 47 -80 131 -96 127 -19 -6 -79 29 -96 55 -26 40 -93 79 -123 72
-13 -3 -33 -3 -44 1 -19 6 -19 7 -5 16 27 15 20 26 -15 24 -29 -1 -35 4 -58
46 -14 27 -30 48 -36 48 -14 0 -11 -114 3 -133 9 -12 17 -65 16 -119 0 -16 5
-28 11 -28 15 0 17 -48 5 -88 -15 -45 -88 -117 -103 -101 -8 9 -8 10 0 6 19
-11 26 41 10 71 -23 43 -56 129 -56 146 0 8 14 24 30 36 36 25 58 62 42 68 -6
2 -8 10 -5 18 10 27 -49 130 -69 118 -5 -3 -16 4 -26 16 -33 40 -146 27 -126
-15 3 -5 -3 -1 -13 11 -18 20 -19 20 -53 1 -74 -40 -95 -74 -65 -103 8 -9 15
-26 15 -39 0 -13 6 -25 13 -28 6 -2 9 -8 5 -12 -5 -5 -17 2 -28 15 -32 37 -23
3 21 -76 27 -49 46 -73 57 -72 36 3 51 -3 55 -19 3 -12 5 -10 6 7 0 14 -6 34
-14 44 -8 11 -15 27 -15 36 0 9 -9 25 -20 35 -11 10 -20 24 -20 30 0 7 -7 18
-15 25 -8 7 -13 16 -10 20 3 5 1 11 -5 15 -18 11 -11 32 13 38 12 3 40 12 62
20 23 9 57 14 78 12 20 -2 37 1 37 6 0 5 5 9 11 9 38 0 50 -89 18 -129 -13
-16 -23 -20 -32 -14 -21 17 -52 21 -64 8 -8 -9 -3 -28 20 -76 18 -35 41 -89
52 -119 16 -43 25 -54 39 -52 15 3 18 -1 13 -18 -3 -13 0 -23 9 -27 8 -3 11
-10 7 -17 -4 -6 -8 -15 -8 -20 0 -5 -9 -14 -20 -20 -11 -6 -23 -15 -26 -20 -4
-4 -10 -3 -14 4 -6 9 -9 9 -16 -1 -4 -7 -11 -10 -15 -6 -4 4 -2 13 4 19 15 15
15 38 2 58 -9 13 -12 12 -25 -4 -15 -20 -15 -20 -30 0 -18 24 -19 38 -1 31 24
-10 41 20 28 48 -13 29 -24 31 -42 10 -7 -8 -16 -12 -21 -9 -12 7 -11 -23 2
-47 9 -18 1 -16 -53 13 -34 18 -66 37 -69 42 -4 4 -10 3 -13 -3 -10 -15 -26
-4 -20 14 3 8 -12 33 -35 58 -23 24 -41 49 -41 55 0 5 -7 12 -15 16 -8 3 -12
11 -10 18 3 8 -4 23 -15 35 -11 12 -20 26 -20 31 0 5 -8 20 -19 33 -10 13 -22
35 -26 49 -4 14 -13 32 -20 40 -24 27 -12 175 19 244 14 32 26 68 26 80 0 15
3 17 9 8 6 -10 10 -10 21 3 36 43 124 65 224 55 90 -9 111 -24 149 -104 81
-169 100 -205 108 -200 5 3 9 -3 9 -13 0 -19 18 -43 32 -43 15 0 9 107 -7 120
-8 7 -12 16 -10 21 3 4 1 16 -4 26 -5 10 -20 41 -32 68 -49 113 -41 98 -84
151 -29 36 -94 58 -167 55 -43 -2 -46 -1 -52 26 -5 26 -10 180 -7 232 1 16 5
21 16 17 17 -6 30 14 39 66 6 32 4 37 -9 32 -11 -5 -15 1 -15 23 0 34 16 54
38 46 10 -4 13 -2 8 5 -4 7 -4 12 1 12 11 0 33 49 33 73 0 10 5 15 10 12 6 -3
13 2 17 12 4 10 17 32 30 49 13 17 23 37 23 44 0 6 11 25 25 42 14 16 25 35
25 42 0 7 14 23 30 36 21 16 29 29 24 42 -3 10 -1 18 5 18 6 0 11 -5 11 -11 0
-5 16 2 34 16 31 24 34 30 25 52 -12 32 -2 44 15 20 18 -23 22 -22 80 22 28
21 64 46 79 56 17 11 26 24 22 33 -3 9 0 12 8 9 13 -5 111 24 124 37 3 3 14 6
24 6 10 0 25 7 33 16 9 8 16 10 16 4 0 -8 6 -8 21 1 16 8 18 13 9 19 -7 5 0 9
19 12 24 3 31 1 27 -9 -3 -7 -1 -13 4 -13 6 0 10 8 10 18 0 13 2 14 9 4 10
-17 157 -7 193 13 13 7 56 13 97 14 58 1 81 -3 108 -20z m5236 -110 c-4 -15
-8 -17 -14 -8 -6 11 4 28 18 29 0 0 -1 -9 -4 -21z m-6033 -59 c0 -5 -4 -10
-10 -10 -5 0 -10 5 -10 10 0 6 5 10 10 10 6 0 10 -4 10 -10z m6050 -175 c0 -8
-2 -15 -4 -15 -2 0 -6 7 -10 15 -3 8 -1 15 4 15 6 0 10 -7 10 -15z m-3540
-313 c0 -4 -8 -12 -19 -17 -10 -6 -34 -18 -52 -28 l-34 -18 39 36 c37 33 66
45 66 27z m-492 -448 c-7 -15 -14 -21 -16 -15 -5 16 5 41 17 41 7 0 6 -10 -1
-26z m-2164 -379 c3 -8 1 -15 -4 -15 -6 0 -10 7 -10 15 0 8 2 15 4 15 2 0 6
-7 10 -15z m-549 -236 c11 -17 -1 -21 -15 -4 -8 9 -8 15 -2 15 6 0 14 -5 17
-11z m906 -96 c20 -9 42 -27 48 -41 15 -32 8 -39 -17 -14 -11 11 -36 26 -55
33 -22 8 -33 17 -30 26 6 17 9 16 54 -4z m1951 -35 c12 -17 17 -28 10 -25 -6
4 -21 22 -34 39 -12 17 -17 28 -10 25 6 -4 21 -22 34 -39z m-1864 -33 c-3 -3
-9 2 -12 12 -6 14 -5 15 5 6 7 -7 10 -15 7 -18z m52 -60 c0 -8 -7 -15 -15 -15
-16 0 -20 12 -8 23 11 12 23 8 23 -8z m-709 -141 c41 -7 64 -24 32 -24 -54 0
-110 31 -96 53 3 5 10 2 15 -7 5 -9 27 -19 49 -22z m264 -187 c4 -20 11 -35
16 -31 5 3 7 10 4 15 -4 5 -1 9 4 9 12 0 13 -6 5 -37 -5 -19 -10 -21 -25 -12
-20 10 -28 -4 -9 -16 6 -3 10 -15 10 -27 0 -21 38 -98 55 -110 5 -4 11 -19 12
-33 2 -26 1 -26 -23 -10 -13 9 -28 14 -33 11 -11 -7 -95 88 -98 111 -2 20 16
189 24 213 7 23 51 -39 58 -83z m683 41 c0 -13 2 -44 7 -70 5 -33 4 -48 -4
-48 -6 0 -11 9 -11 20 0 11 -7 20 -15 20 -9 0 -14 10 -13 28 0 15 -3 37 -7 50
-6 19 -4 22 19 22 20 0 25 -5 24 -22z m779 -34 c-3 -3 -12 -4 -19 -1 -8 3 -5
6 6 6 11 1 17 -2 13 -5z m57 -2 c3 -5 28 -7 57 -6 33 2 62 -2 83 -13 l31 -16
-30 -13 c-39 -17 -142 -17 -229 0 -38 7 -78 12 -90 10 -12 -3 -8 2 11 11 17 8
58 15 92 16 33 1 58 6 55 10 -3 5 -1 9 5 9 5 0 12 -4 15 -8z m-699 -202 c-3
-5 -11 -10 -16 -10 -6 0 -7 5 -4 10 3 6 11 10 16 10 6 0 7 -4 4 -10z m1003
-53 c19 -24 46 -51 62 -62 17 -12 26 -24 22 -34 -3 -9 -1 -12 6 -7 6 3 13 2
17 -4 3 -5 0 -10 -6 -10 -17 0 -89 70 -89 87 0 19 -19 16 -27 -4 -4 -10 2 -22
15 -33 12 -10 18 -20 15 -24 -4 -3 -1 -6 5 -6 12 0 102 -82 102 -93 0 -11 39
-47 50 -47 6 0 10 -3 10 -8 0 -4 14 -22 30 -40 37 -41 41 -17 4 27 -14 17 -24
36 -22 42 2 6 15 -6 30 -27 14 -22 37 -51 51 -67 22 -23 25 -32 17 -53 -7 -17
-6 -31 2 -44 10 -15 9 -26 -5 -55 -9 -20 -25 -38 -34 -41 -10 -4 -32 -12 -48
-19 -52 -23 -90 -38 -103 -41 -25 -5 -77 -33 -98 -53 -12 -11 -25 -17 -28 -14
-3 4 -6 2 -6 -4 0 -9 -25 -22 -55 -28 -38 -7 -64 -18 -60 -25 3 -5 -4 -6 -15
-3 -12 3 -22 -1 -26 -11 -3 -9 -14 -16 -24 -16 -9 0 -29 -9 -44 -21 -15 -11
-33 -18 -42 -15 -9 4 -12 2 -8 -5 5 -8 -5 -10 -30 -7 -20 2 -36 0 -36 -4 0
-14 -29 -9 -68 11 -40 21 -84 65 -123 121 -13 19 -29 41 -36 48 -7 7 -13 18
-13 23 0 6 -11 25 -24 42 -30 40 -83 163 -88 201 -3 30 -3 31 155 150 10 8 60
31 110 51 51 20 108 46 127 56 94 50 141 69 181 73 24 3 45 9 47 14 5 17 39 1
52 -24 8 -13 17 -24 22 -24 15 0 8 30 -12 50 -12 12 -15 20 -7 20 6 -1 27 -20
45 -43z m182 -210 c0 -5 -9 -2 -20 8 -11 10 -20 25 -20 34 1 12 5 10 20 -8 11
-13 20 -28 20 -34z m2020 -1043 c0 -8 -6 -11 -15 -8 -10 4 -14 1 -11 -7 15
-51 16 -52 31 -39 12 10 16 9 22 -6 4 -11 1 -21 -8 -27 -21 -13 -4 -77 46
-178 60 -123 66 -133 75 -119 5 8 8 2 7 -16 -1 -16 7 -53 18 -82 19 -53 20
-53 53 -47 26 5 33 3 29 -7 -2 -7 -10 -12 -16 -10 -6 1 -11 -6 -11 -15 0 -15
-2 -16 -10 -3 -7 11 -10 11 -10 2 0 -7 -4 -11 -9 -8 -13 8 -71 -14 -71 -27 0
-6 -3 -8 -6 -4 -8 8 -64 -12 -97 -36 -22 -15 -31 -17 -40 -8 -9 9 -9 14 2 20
14 9 4 19 -16 15 -7 -1 -22 -2 -33 -3 -23 -1 -28 -21 -5 -21 8 0 12 -6 9 -14
-3 -9 -13 -12 -22 -9 -9 4 -14 3 -10 -2 11 -12 -11 -45 -30 -45 -9 0 -42 -16
-72 -35 -30 -18 -76 -44 -102 -57 -27 -13 -48 -27 -48 -33 0 -5 -14 -10 -31
-11 -17 -1 -43 -11 -59 -22 -15 -12 -40 -24 -54 -28 -14 -3 -26 -10 -26 -15 0
-5 -9 -9 -21 -9 -12 0 -17 -4 -13 -11 4 -8 -3 -9 -26 -4 -20 4 -30 3 -27 -3 4
-5 -3 -9 -15 -8 -11 0 -26 10 -32 21 -16 29 -27 34 -52 25 -30 -12 -62 -9 -68
7 -3 7 -11 13 -18 13 -7 0 -30 9 -50 19 -19 11 -38 18 -41 15 -8 -8 -106 29
-101 38 3 4 -3 8 -13 8 -11 0 -25 6 -32 13 -11 9 -12 9 -7 0 5 -9 2 -11 -8 -7
-9 3 -16 11 -16 18 -1 6 -21 26 -45 43 -24 18 -61 58 -82 88 -21 30 -50 60
-65 67 -18 8 -28 21 -28 35 0 12 -12 31 -27 43 -26 20 -28 20 -34 3 -7 -17 -8
-17 -8 0 -1 9 -5 17 -10 17 -5 0 -7 8 -4 19 5 20 -34 64 -49 55 -4 -3 -8 -1
-8 4 0 5 -21 36 -46 68 -25 33 -50 70 -55 82 -5 13 -18 26 -29 29 -11 3 -17 9
-14 14 6 11 -12 47 -40 77 l-21 24 29 -8 c16 -4 44 -17 61 -28 38 -26 123 -64
235 -106 47 -18 90 -39 97 -47 14 -18 53 -11 77 13 9 9 40 19 69 24 28 4 77
15 107 24 94 27 193 47 209 41 8 -3 18 -1 21 6 8 11 25 14 160 24 52 4 91 12
101 21 10 9 24 12 34 8 13 -5 16 -4 11 4 -4 7 -1 12 7 12 18 0 81 57 68 61 -6
2 -8 14 -5 27 5 18 13 22 43 22 20 0 63 7 96 16 33 8 83 18 110 21 28 2 52 10
54 16 5 13 41 -30 41 -49z m-470 -128 c0 -2 -15 -6 -34 -8 -19 -2 -32 0 -30 4
5 8 64 12 64 4z m400 -556 c0 -5 -5 -10 -11 -10 -5 0 -7 5 -4 10 3 6 8 10 11
10 2 0 4 -4 4 -10z m-920 -181 c0 -5 -4 -9 -10 -9 -5 0 -10 7 -10 16 0 8 5 12
10 9 6 -3 10 -10 10 -16z m1400 -91 c0 -14 5 -18 15 -14 8 3 15 1 15 -4 0 -6
-5 -10 -11 -10 -7 0 -5 -10 5 -25 9 -13 16 -33 16 -44 0 -35 82 -193 97 -187
10 4 11 1 4 -13 -6 -10 -8 -21 -5 -24 3 -3 7 -37 9 -77 3 -62 7 -75 30 -96 19
-18 24 -29 19 -49 -3 -14 -10 -25 -15 -25 -5 0 -5 -7 -2 -17 4 -11 3 -14 -6
-9 -8 5 -10 22 -6 50 6 35 4 44 -10 50 -16 6 -17 -2 -10 -86 5 -51 7 -117 6
-145 -1 -38 2 -53 11 -53 10 0 10 -2 -1 -9 -10 -6 -11 -13 -2 -29 7 -14 8 -23
1 -27 -13 -8 -13 -52 1 -61 8 -4 8 -9 0 -17 -15 -15 -14 -54 2 -60 9 -4 8 -8
-3 -16 -11 -8 -15 -32 -17 -93 -1 -102 -9 -134 -39 -174 -13 -17 -21 -34 -18
-37 3 -3 -3 -10 -14 -16 -11 -6 -22 -24 -25 -41 -5 -21 -12 -30 -26 -30 -15 0
-19 5 -15 18 5 14 4 15 -5 2 -8 -12 -42 -15 -183 -17 -188 -1 -377 -11 -391
-20 -4 -3 -25 -5 -45 -5 -20 0 -42 -4 -48 -9 -7 -5 -16 -9 -20 -8 -5 1 -16 0
-24 -4 -30 -11 -130 -24 -130 -16 0 12 34 71 69 120 17 23 31 48 31 55 0 7 11
26 25 42 14 17 25 32 25 34 0 7 105 162 145 216 21 27 34 54 32 64 -3 10 -2
16 2 14 12 -8 38 19 64 69 31 58 33 67 11 58 -14 -5 -15 -3 -5 15 7 12 16 22
21 22 4 0 11 14 15 31 4 17 13 33 21 36 8 3 12 9 9 13 -3 5 -1 11 5 15 5 3 10
0 10 -7 0 -14 9 2 72 124 22 43 37 82 33 88 -3 6 1 13 9 16 9 3 13 10 11 15
-3 5 1 19 10 32 8 13 12 26 9 30 -4 3 1 13 10 23 10 9 14 24 11 34 -4 12 0 20
13 24 11 4 24 23 31 49 7 23 19 49 26 57 25 29 77 151 71 167 -4 11 -2 14 9 9
8 -3 15 -1 15 4 0 5 7 7 15 4 8 -4 15 -15 15 -26z m-220 -278 c0 -5 -5 -10
-11 -10 -5 0 -7 5 -4 10 3 6 8 10 11 10 2 0 4 -4 4 -10z m420 -40 c0 -5 -7
-10 -15 -10 -8 0 -15 5 -15 10 0 6 7 10 15 10 8 0 15 -4 15 -10z m1610 -10 c0
-14 -59 -75 -65 -68 -5 4 54 77 63 78 1 0 2 -5 2 -10z m-80 -84 c0 -2 -37 -41
-81 -87 -45 -46 -93 -96 -107 -111 -14 -16 -31 -28 -39 -28 -7 0 -13 -4 -13
-9 0 -5 -10 -11 -22 -14 -18 -5 -16 0 12 21 19 15 79 73 135 129 87 90 115
114 115 99z m-1560 -16 c0 -5 -2 -10 -4 -10 -3 0 -8 5 -11 10 -3 6 -1 10 4 10
6 0 11 -4 11 -10z m1275 -200 c-3 -5 -11 -10 -16 -10 -6 0 -7 5 -4 10 3 6 11
10 16 10 6 0 7 -4 4 -10z m-1847 -35 c-3 -3 -9 2 -12 12 -6 14 -5 15 5 6 7 -7
10 -15 7 -18z m-25 -20 c-3 -9 -8 -14 -10 -11 -3 3 -2 9 2 15 9 16 15 13 8 -4z
m617 -20 c0 -8 -4 -17 -10 -20 -6 -4 -10 5 -10 20 0 15 4 24 10 20 6 -3 10
-12 10 -20z m1230 5 c0 -5 -4 -10 -10 -10 -5 0 -10 5 -10 10 0 6 5 10 10 10 6
0 10 -4 10 -10z m-1899 -93 c-10 -9 -11 -8 -5 6 3 10 9 15 12 12 3 -3 0 -11
-7 -18z m1349 -86 c0 -5 -9 -11 -20 -14 -22 -6 -28 8 -7 16 19 8 27 8 27 -2z
m47 -77 c-3 -3 -12 -4 -19 -1 -8 3 -5 6 6 6 11 1 17 -2 13 -5z m-377 -28 c0
-3 -4 -8 -10 -11 -5 -3 -10 -1 -10 4 0 6 5 11 10 11 6 0 10 -2 10 -4z m-230
-86 c0 -5 -5 -10 -11 -10 -5 0 -7 5 -4 10 3 6 8 10 11 10 2 0 4 -4 4 -10z
m-60 -4 c0 -3 -4 -8 -10 -11 -5 -3 -10 -1 -10 4 0 6 5 11 10 11 6 0 10 -2 10
-4z m370 -21 c-7 -8 -27 -15 -44 -15 l-31 1 30 14 c43 19 61 19 45 0z m-3754
-126 c19 -22 19 -22 -3 -10 -24 12 -39 31 -25 31 5 0 17 -10 28 -21z m1504
-249 c0 -5 -5 -10 -11 -10 -5 0 -7 5 -4 10 3 6 8 10 11 10 2 0 4 -4 4 -10z"/>
<path d="M8780 8179 c0 -5 5 -7 10 -4 6 3 10 8 10 11 0 2 -4 4 -10 4 -5 0 -10
-5 -10 -11z"/>
<path d="M8359 8128 c0 -7 -2 -25 -3 -41 -1 -19 2 -26 11 -23 7 3 13 -1 13 -9
0 -8 5 -15 11 -15 6 0 9 7 5 15 -3 8 -1 15 4 15 6 0 10 -7 10 -17 0 -22 13 -8
17 19 2 12 9 25 15 30 9 5 8 9 -4 13 -10 4 -21 4 -26 1 -6 -3 -12 1 -16 9 -7
18 -36 20 -37 3z"/>
<path d="M8480 8086 c0 -9 7 -16 15 -16 8 0 15 -5 15 -11 0 -5 -4 -7 -10 -4
-5 3 -10 2 -10 -4 0 -5 6 -12 13 -14 10 -4 10 -6 0 -6 -7 -1 -13 -6 -13 -12 0
-7 10 -9 25 -7 13 3 22 2 20 -2 -5 -8 39 -30 59 -30 7 0 21 9 31 20 17 19 17
21 0 40 -21 23 -71 48 -95 48 -8 0 -23 3 -32 7 -13 5 -18 2 -18 -9z m104 -41
c15 -12 17 -18 8 -27 -9 -9 -13 -7 -18 8 -4 10 -12 22 -18 26 -7 5 -7 8 -1 8
6 -1 19 -7 29 -15z"/>
<path d="M9131 7714 c0 -11 3 -14 6 -6 3 7 2 16 -1 19 -3 4 -6 -2 -5 -13z"/>
<path d="M5090 8991 c0 -5 9 -11 20 -14 24 -6 27 8 4 17 -21 8 -24 8 -24 -3z"/>
<path d="M3381 8936 c-6 -7 -8 -22 -4 -31 5 -15 3 -17 -13 -11 -11 4 0 -12 25
-38 28 -28 49 -42 59 -38 9 3 13 1 9 -6 -7 -10 73 -72 92 -72 12 0 27 21 36
50 7 23 7 23 -9 7 -10 -9 -22 -17 -27 -17 -12 0 -12 27 1 35 6 4 8 11 4 16 -3
5 -9 7 -14 4 -4 -3 -10 2 -14 10 -10 26 -29 17 -22 -10 4 -14 2 -25 -4 -25 -5
0 -10 17 -10 38 0 39 -25 72 -54 72 -8 0 -21 7 -29 15 -13 12 -17 12 -26 1z"/>
<path d="M3600 8777 c0 -7 -9 -19 -20 -27 -24 -17 -26 -30 -5 -30 8 0 15 7 15
16 0 8 5 12 11 9 6 -4 8 -13 5 -20 -7 -18 87 -85 120 -85 8 0 14 -4 14 -8 0
-5 11 -14 25 -20 22 -10 27 -9 33 7 6 17 9 18 26 6 10 -8 15 -18 12 -24 -12
-18 41 -44 71 -35 16 4 34 6 41 5 15 -2 15 1 0 34 -6 14 -17 25 -25 25 -7 0
-13 8 -13 18 -1 19 -50 60 -50 42 0 -12 -45 -6 -90 13 -14 5 -33 9 -44 8 -10
-2 -29 8 -42 20 l-24 22 0 -22 c0 -12 7 -24 15 -27 8 -4 12 -10 9 -15 -3 -5
-12 -2 -20 6 -9 8 -19 13 -24 10 -19 -11 -16 24 3 40 20 17 20 18 2 31 -24 18
-45 18 -45 1z"/>
<path d="M6183 8580 c-13 -15 -23 -33 -23 -39 0 -6 -4 -11 -9 -11 -5 0 -9 -12
-9 -27 0 -16 -1 -35 -3 -43 -2 -9 2 -14 10 -12 8 2 27 4 43 5 15 1 28 5 28 10
0 4 0 9 0 12 0 3 6 18 15 35 20 38 19 63 -3 83 -23 21 -23 21 -49 -13z m26
-39 c-15 -5 -22 6 -14 19 6 9 10 9 16 -1 5 -8 4 -15 -2 -18z"/>
<path d="M6160 8429 c0 -4 7 -9 15 -13 8 -3 15 -1 15 5 0 6 5 7 10 4 6 -3 10
-1 10 4 0 6 -11 10 -25 9 -14 -1 -25 -5 -25 -9z"/>
<path d="M5660 8306 c0 -3 14 -12 30 -21 17 -9 30 -13 30 -11 0 3 -13 12 -30
21 -16 9 -30 13 -30 11z"/>
<path d="M5415 7970 c-3 -5 -1 -10 4 -10 6 0 11 5 11 10 0 6 -2 10 -4 10 -3 0
-8 -4 -11 -10z"/>
<path d="M5436 7935 c-3 -9 0 -15 9 -15 8 0 15 7 15 15 0 8 -4 15 -9 15 -5 0
-11 -7 -15 -15z"/>
<path d="M6590 7930 c0 -5 5 -10 11 -10 5 0 7 5 4 10 -3 6 -8 10 -11 10 -2 0
-4 -4 -4 -10z"/>
<path d="M3440 7140 c6 -11 15 -20 20 -20 17 0 11 15 -11 28 -19 12 -19 11 -9
-8z"/>
<path d="M3492 7109 c2 -7 12 -13 21 -15 23 -3 21 3 -4 17 -17 8 -20 8 -17 -2z"/>
<path d="M2920 6384 c-25 -8 -69 -22 -98 -31 -29 -10 -61 -25 -70 -34 -33 -30
-71 -51 -83 -44 -8 5 -8 1 1 -15 7 -12 7 -20 2 -16 -15 9 -42 -4 -42 -19 0 -8
-8 -12 -19 -10 -24 4 -36 -10 -40 -49 l-3 -29 49 35 c49 36 116 64 131 54 4
-2 26 -1 47 4 28 6 42 5 47 -3 5 -9 17 -8 50 1 61 19 72 19 131 10 29 -4 72
-10 96 -12 28 -3 50 -11 58 -22 7 -10 13 -14 13 -10 0 4 14 -2 30 -14 36 -26
53 -22 71 18 9 21 18 28 31 24 14 -3 18 1 18 22 0 19 5 26 19 26 17 0 18 3 8
33 -6 17 -12 33 -12 34 0 2 -159 35 -195 40 -19 2 -68 8 -108 13 -88 12 -77
12 -132 -6z"/>
<path d="M3036 6039 c-15 -12 -25 -26 -23 -33 2 -6 0 -21 -4 -33 -11 -30 6
-117 28 -142 10 -12 25 -21 35 -21 21 0 32 -16 16 -24 -7 -4 3 -4 22 -1 18 3
37 10 41 16 4 7 11 9 17 5 5 -3 17 5 26 19 18 27 21 65 6 65 -5 0 -10 5 -10
11 0 5 5 7 10 4 7 -4 8 3 4 22 -4 15 -11 30 -16 31 -4 2 -8 10 -8 17 0 8 -10
29 -22 48 -23 34 -61 47 -74 25 -4 -6 -9 -6 -14 1 -4 8 -15 5 -34 -10z m154
-183 c0 -3 -4 -8 -10 -11 -5 -3 -10 -1 -10 4 0 6 5 11 10 11 6 0 10 -2 10 -4z"/>
<path d="M3715 6017 c-13 -32 -9 -170 5 -175 6 -2 10 -10 10 -17 0 -16 16 -22
54 -21 27 1 30 5 43 59 8 32 12 66 8 75 -4 9 -8 27 -9 39 -1 13 -8 28 -15 35
-11 10 -12 10 -7 1 4 -7 2 -13 -3 -13 -6 0 -11 11 -11 25 0 21 -4 24 -31 22
-25 -2 -35 -9 -44 -30z"/>
<path d="M3579 5822 c-8 -12 -24 -22 -37 -22 -22 0 -23 -3 -17 -42 4 -24 15
-52 25 -63 11 -13 19 -43 23 -84 3 -35 10 -67 15 -70 6 -3 12 -17 13 -30 2
-13 11 -25 19 -27 8 -2 25 -6 38 -10 16 -5 22 -2 22 10 0 9 -4 16 -9 16 -6 0
-6 12 -1 30 6 21 4 41 -6 65 -8 19 -14 44 -14 55 0 11 -5 28 -10 38 -6 9 -18
48 -28 87 -18 66 -20 68 -33 47z"/>
<path d="M3345 5410 c-4 -11 -11 -17 -17 -14 -8 5 -9 1 -5 -10 4 -10 7 -21 7
-26 0 -9 73 -40 95 -40 9 0 28 -14 44 -32 24 -27 36 -32 88 -36 l60 -4 8 33
c7 29 9 31 12 11 4 -18 9 -22 26 -16 12 3 30 17 40 30 10 13 27 24 36 24 20 0
71 36 71 50 0 13 -53 36 -72 32 -14 -3 -16 -7 -8 -23 7 -13 7 -19 0 -19 -5 0
-10 6 -10 14 0 8 -7 16 -15 20 -8 3 -15 1 -15 -5 0 -6 -7 -8 -16 -5 -10 4 -14
1 -12 -6 2 -6 -4 -20 -15 -31 -29 -29 -113 -21 -148 15 -14 15 -29 25 -32 22
-4 -4 -17 0 -30 9 -17 11 -27 13 -35 5 -8 -8 -15 -6 -27 6 -21 20 -22 20 -30
-4z"/>
<path d="M3660 5230 c0 -5 5 -10 11 -10 5 0 7 5 4 10 -3 6 -8 10 -11 10 -2 0
-4 -4 -4 -10z"/>
<path d="M3695 5220 c4 -6 11 -8 16 -5 14 9 11 15 -7 15 -8 0 -12 -5 -9 -10z"/>
<path d="M2002 5030 c0 -14 2 -19 5 -12 2 6 2 18 0 25 -3 6 -5 1 -5 -13z"/>
<path d="M3150 4479 c0 -5 5 -7 10 -4 6 3 10 8 10 11 0 2 -4 4 -10 4 -5 0 -10
-5 -10 -11z"/>
<path d="M5295 3330 c-3 -5 -1 -10 4 -10 6 0 11 5 11 10 0 6 -2 10 -4 10 -3 0
-8 -4 -11 -10z"/>
</g>
</svg>
